<svg xmlns="http://www.w3.org/2000/svg" viewBox="0 0 80 80" fill="none">
  <rect width="80" height="80" fill="#15100A"/>
  <g transform="translate(40,40)">
    <path d="M 0 -3 C -19 -7 -17 -32 0 -35 C 17 -32 19 -7 0 -3 Z" fill="#E8843E" opacity="0.95"/>
    <g transform="rotate(120)"><path d="M 0 -3 C -19 -7 -17 -32 0 -35 C 17 -32 19 -7 0 -3 Z" fill="#E8843E" opacity="0.95"/></g>
    <g transform="rotate(240)"><path d="M 0 -3 C -19 -7 -17 -32 0 -35 C 17 -32 19 -7 0 -3 Z" fill="#E8843E" opacity="0.95"/></g>
    <circle cx="0" cy="-5" r="6.5" fill="#D67328"/>
    <circle cx="4.5" cy="2.6" r="6.5" fill="#D67328"/>
    <circle cx="-4.5" cy="2.6" r="6.5" fill="#D67328"/>
    <line x1="0" y1="0" x2="0" y2="-6" stroke="#5A1E0E" stroke-width="1.2" stroke-linecap="round" transform="rotate(60)"/>
    <line x1="0" y1="0" x2="0" y2="-6" stroke="#5A1E0E" stroke-width="1.2" stroke-linecap="round" transform="rotate(180)"/>
    <line x1="0" y1="0" x2="0" y2="-6" stroke="#5A1E0E" stroke-width="1.2" stroke-linecap="round" transform="rotate(300)"/>
    <circle cx="0" cy="0" r="1.4" fill="#3A1808"/>
  </g>
</svg>
